<?xml version="1.0" encoding="UTF-8"?><svg id="Layer_1" xmlns="http://www.w3.org/2000/svg" viewBox="0 0 36 36"><defs><style>.cls-1{fill:#fff;}</style></defs><rect width="36" height="36" rx="8" ry="8"/><path class="cls-1" d="m17.42,15.38h2.08v-3.14h3.12v-2.1h-3.12v-3.14h-2.08v3.14h-3.12v2.1h3.12v3.14Zm-4.17,9.43c-1.15,0-2.07.94-2.07,2.1s.93,2.1,2.07,2.1,2.08-.94,2.08-2.1-.94-2.1-2.08-2.1Zm10.42,0c-1.15,0-2.07.94-2.07,2.1s.93,2.1,2.07,2.1,2.08-.94,2.08-2.1-.94-2.1-2.08-2.1Zm-10.24-3.4l.03-.13.94-1.71h7.76c.78,0,1.47-.43,1.82-1.08l4.02-7.34-1.81-1.01h-.01l-1.15,2.1-2.88,5.24h-7.31l-.14-.28-2.33-4.96-.99-2.1-.98-2.1h-3.41v2.1h2.08l3.75,7.95-1.41,2.57c-.17.29-.26.64-.26,1.01,0,1.15.94,2.1,2.08,2.1h12.5v-2.1h-12.06c-.14,0-.26-.12-.26-.26Z"/></svg>